<?xml version="1.0" encoding="utf-8"?>
<!-- Generator: Adobe Illustrator 27.8.0, SVG Export Plug-In . SVG Version: 6.00 Build 0)  -->
<svg version="1.1"
	 id="emah" xmlns:svg="http://www.w3.org/2000/svg" xmlns:sodipodi="http://sodipodi.sourceforge.net/DTD/sodipodi-0.dtd" xmlns:inkscape="http://www.inkscape.org/namespaces/inkscape"
	 xmlns="http://www.w3.org/2000/svg" xmlns:xlink="http://www.w3.org/1999/xlink" x="0px" y="0px" viewBox="0 0 629.2 512"
	 style="enable-background:new 0 0 629.2 512;" xml:space="preserve">
<style type="text/css">
	.st0{fill:url(#logomark_00000039100881355621207200000017865149783623314099_);}
</style>
<linearGradient id="logomark_00000131331405922917936940000015943009565437717914_" gradientUnits="userSpaceOnUse" x1="-642.9765" y1="796.5502" x2="-641.9765" y2="796.5502" gradientTransform="matrix(629.2259 0 0 -629.2259 404577.4688 501466.0312)">
	<stop  offset="0" style="stop-color:#EF2F21"/>
	<stop  offset="1" style="stop-color:#F49720"/>
</linearGradient>
<path id="logomark" inkscape:label="logomark" style="fill:url(#logomark_00000131331405922917936940000015943009565437717914_);" d="
	M250.1,1.7L127.1,62.4L29.9,169.9L0,300.3l76.8,132.2l125-5.6l48.7,85.2l77.9-69.4l116-12.5l56.5-82.2l110.4-43.1l18-140.6L510,41.5
	L359.6,0L250.1,1.7z M153.6,67.7l100.5-49.5l93-1.5l-33.6,91.7c-7,0.1-13.2,3.3-17.3,8.2l0,0L153.6,67.7z M329.1,114.1l35.1-95.7
	l116.6,32.2l-150.4,64.8C330,114.9,329.5,114.5,329.1,114.1 M493.7,63l-83.3,210.7c-0.1,0-0.2,0-0.2,0l0,0c-1.3,0-2.5,0.1-3.7,0.3
	l0,0l-74.6-128c3.2-3.9,5.1-9,5.1-14.4l0,0c0-0.3,0-0.6,0-0.9l0,0L493.7,63z M510.4,65.6L611.8,170L426.6,277.6L510.4,65.6z
	 M45.1,177.8l89.4-99l69.7,201.9c-2.8,2.4-5.1,5.4-6.5,8.9l0,0l-178.5,1L45.1,177.8z M219.8,275.4L154.3,85.4l136.6,46.9
	c0.2,5.2,2.1,10,5.2,13.8l0,0l-73.6,129.5C221.6,275.5,220.7,275.4,219.8,275.4 M317.6,154.2l74.6,128c-1.5,1.9-2.7,4-3.6,6.3l0,0
	l-148.4,0.8c-0.9-2-2-3.9-3.4-5.6l0,0l73.6-129.5c1.1,0.2,2.3,0.3,3.4,0.3l0,0C315.2,154.5,316.4,154.4,317.6,154.2 M433.1,298.9
	c0.1-0.7,0.1-1.5,0.1-2.2l0,0c0-1.2-0.1-2.5-0.3-3.7l0,0l176.3-102.3L596.1,293l-98.1,38.3L433.1,298.9z M239.4,309.1
	c0.5-1,1-2.1,1.4-3.2l0,0l147.9-0.8c0.9,2.3,2.1,4.4,3.6,6.2l0,0l-59.5,104.1L239.4,309.1z M23.1,307.1l174.2-1c0,0,0,0.1,0,0.1l0,0
	L81.2,407.1L23.1,307.1z M425.7,313.7l58.5,29.3L435,414.5L347,424l59.7-104.5c1.1,0.2,2.3,0.3,3.5,0.3l0,0
	C416.2,319.7,421.6,317.4,425.7,313.7 M208.2,318.7c3.2,1.7,6.9,2.7,10.8,2.7l0,0c2.8,0,5.5-0.5,8-1.4l0,0l94,107l-66.3,59.1
	l-43.6-76.2L97.3,415L208.2,318.7z"/>
</svg>
