<?xml version="1.0" encoding="UTF-8"?>
<svg id="logotype" xmlns="http://www.w3.org/2000/svg" viewBox="0 0 512 154.98">
  <defs>
    <style>
      .cls-1 {
        fill: #f50;
        stroke-width: 0px;
      }
    </style>
  </defs>
  <path id="logomark" class="cls-1" d="m153.52,13.29L108.26.81l-32.97.52-37.04,18.27L9.01,51.98,0,91.23l23.13,39.81,37.63-1.7,14.65,25.65,23.46-20.91,34.91-3.75,17-24.74,33.22-12.98,5.43-42.34-35.9-36.97Zm-81.44,80.59c.16-.31.3-.63.42-.96l44.52-.25c.27.68.64,1.31,1.09,1.87l-17.91,31.36-28.12-32.01Zm-47.63,29.51l-17.49-30.11,52.44-.3s0,.03.01.03l-34.97,30.37Zm63.12-82.75c.06,1.57.63,3.01,1.57,4.15l-22.16,38.99c-.26-.04-.53-.06-.8-.07l-19.72-57.19,41.11,14.11ZM109.62,6.34l35.11,9.69-45.27,19.52c-.13-.13-.26-.26-.4-.38l10.56-28.83Zm-37.3,81.6c-.26-.61-.61-1.18-1.03-1.68l22.16-39c.34.05.68.08,1.04.08.38,0,.75-.03,1.11-.09l22.46,38.55c-.45.57-.82,1.2-1.08,1.89l-44.66.25Zm51.15-4.74c-.38,0-.75.03-1.12.09l-22.46-38.55c.95-1.19,1.53-2.7,1.53-4.34,0-.09,0-.19,0-.28l47.2-20.35-25.08,63.44s-.05,0-.07,0Zm30.18-62.63l30.52,31.43-55.75,32.38,25.23-63.81ZM76.5,6.29l28.01-.44-10.12,27.62c-2.09.03-3.96.99-5.21,2.48l-42.94-14.74,30.26-14.92ZM13.57,54.36l26.92-29.82,20.98,60.81c-.85.71-1.52,1.63-1.95,2.67l-53.74.3,7.8-33.96Zm49.99,69.87l-34.27,1.55,33.38-28.99c.97.52,2.08.81,3.26.81.85,0,1.66-.15,2.41-.43l28.3,32.22-19.97,17.8-13.11-22.96Zm67.4,1.4l-26.51,2.85,17.97-31.47c.35.05.7.08,1.06.08,1.8,0,3.44-.69,4.68-1.81l17.61,8.82-14.8,21.54Zm18.94-25.04l-19.52-9.77c.02-.22.03-.45.03-.67,0-.37-.03-.74-.09-1.1l53.06-30.82-3.95,30.83-29.53,11.54Z"/>
  <path id="logname" class="cls-1" d="m211.73,84.41v-36.25c0-5.43,1.78-9.92,5.35-13.49,3.56-3.56,8.06-5.35,13.49-5.35h21.74c5.43,0,9.94,1.78,13.52,5.35,3.59,3.56,5.38,8.06,5.38,13.49v26.06h-47.16v7.29c0,6.75,3.37,10.13,10.13,10.13h34.13v11.61h-37.74c-5.43,0-9.92-1.78-13.49-5.35-3.56-3.56-5.35-8.06-5.35-13.49m12.32-21.74h34.77v-11.61c0-6.75-3.38-10.15-10.13-10.2h-14.51c-6.75,0-10.13,3.4-10.13,10.2v11.61Zm154.13-18.59c-1.45-5.12-3.86-8.89-7.25-11.31-3.38-2.42-8.07-3.63-14.06-3.63-4.74,0-9.4.68-14,2.03-4.59,1.35-8.82,3.1-12.69,5.22-1.84-2.42-4.35-4.23-7.54-5.44-3.19-1.21-6.67-1.81-10.44-1.81-3.48,0-6.86.53-10.15,1.6-3.29,1.06-6.77,2.66-10.44,4.78v-4.78h-13.34v72.5h13.49v-57.42l2.32-1.16c1.93-.87,4.33-1.64,7.18-2.32,2.85-.67,5.63-1.01,8.33-1.01,3.67,0,6.46.75,8.34,2.25,1.89,1.5,3.17,3.97,3.84,7.4.68,3.43,1.02,8.39,1.02,14.86v37.41h13.63v-37.7c0-8.99-.53-15.56-1.6-19.72l2.61-1.16c2.23-.96,4.79-1.77,7.69-2.4,2.9-.63,5.7-.94,8.41-.94,3.67,0,6.45.75,8.34,2.25,1.88,1.5,3.19,3.91,3.91,7.25.73,3.34,1.09,8.05,1.09,14.14v38.28h13.48v-38.57c0-8.6-.72-15.47-2.17-20.59m131.65-.14c-1.45-5.12-3.92-8.87-7.4-11.24-3.48-2.37-8.32-3.55-14.5-3.55-3.58,0-7.06.44-10.44,1.3-3.39.87-7.16,2.28-11.31,4.2V0h-13.49v103.24h13.49v-55.68c0-1.57.99-2.96,2.47-3.48,5.32-1.83,10.44-2.75,15.37-2.75,3.96,0,6.98.72,9.06,2.17,2.08,1.45,3.5,3.82,4.28,7.1.77,3.29,1.16,8.07,1.16,14.36v38.28h13.49v-38.57c0-8.7-.73-15.61-2.17-20.74m-66.13,8.99c0-8.22-1.93-14.23-5.8-18.06-3.86-3.82-10.06-5.72-18.56-5.72s-18.32,1.21-28.57,3.63l.43,9.86c10.63-1.16,20.01-1.74,28.13-1.74,3.57,0,6.28.94,8.12,2.83,1.83,1.89,2.75,4.96,2.75,9.21v5.66l-20.59,1.88c-8.03.78-13.87,2.83-17.55,6.17-3.67,3.33-5.51,8.58-5.51,15.73s1.79,12.81,5.36,16.68c3.57,3.86,8.79,5.8,15.66,5.8,7.33,0,18.44-3.98,25.9-7.07l1.15,5.48h9.04s0-50.32,0-50.32Zm-13.48,36.72l-3.04,1.13c-5.51,1.83-11.22,2.75-17.11,2.75-6.48,0-9.72-3.86-9.72-11.6,0-3.67.9-6.45,2.68-8.34,1.79-1.89,4.57-3.02,8.34-3.41l18.85-1.74v21.2Z"/>
</svg>