<?xml version="1.0" encoding="UTF-8" standalone="no"?>
<!-- Created with Inkscape (http://www.inkscape.org/) -->

<svg
   version="1.1"
   id="svg9053"
   width="807.90332"
   height="250.00012"
   viewBox="0 0 807.90331 250.00012"
   sodipodi:docname="MANUAL CORPORATIVO EMAH NARANJA.pdf"
   xmlns:inkscape="http://www.inkscape.org/namespaces/inkscape"
   xmlns:sodipodi="http://sodipodi.sourceforge.net/DTD/sodipodi-0.dtd"
   xmlns="http://www.w3.org/2000/svg"
   xmlns:svg="http://www.w3.org/2000/svg">
  <defs
     id="defs9057">
    <clipPath
       clipPathUnits="userSpaceOnUse"
       id="clipPath9577">
      <path
         d="M 0,1080 H 1413.02 V 0 H 0 Z"
         id="path9575" />
    </clipPath>
    <linearGradient
       x1="0"
       y1="0"
       x2="1"
       y2="0"
       gradientUnits="userSpaceOnUse"
       gradientTransform="matrix(224.16621,0,0,-224.16621,355.5322,555.28009)"
       spreadMethod="pad"
       id="linearGradient9599">
      <stop
         style="stop-opacity:1;stop-color:#ef2f21"
         offset="0"
         id="stop9595" />
      <stop
         style="stop-opacity:1;stop-color:#f49720"
         offset="1"
         id="stop9597" />
    </linearGradient>
  </defs>
  <sodipodi:namedview
     id="namedview9055"
     pagecolor="#ffffff"
     bordercolor="#ffffff"
     borderopacity="1"
     inkscape:showpageshadow="0"
     inkscape:pageopacity="1"
     inkscape:pagecheckerboard="1"
     inkscape:deskcolor="#505050"
     showgrid="false" />
  <g
     id="g9541"
     inkscape:groupmode="layer"
     inkscape:label="Page 6"
     transform="matrix(1.3333333,0,0,-1.3333333,-643.12469,-144.86511)">
    <text
       xml:space="preserve"
       transform="scale(0.9993611,-1.0006393)"
       style="font-variant:normal;font-weight:500;font-stretch:normal;font-size:57.7364px;font-family:'TT Supermolot Neue Light';-inkscape-font-specification:TTSupermolotNeue-Medium;writing-mode:lr-tb;fill:#413e3f;fill-opacity:1;fill-rule:nonzero;stroke:none;stroke-width:1.00481"
       id="text9561"
       x="732.11755"
       y="285.55701"
       inkscape:export-filename="../8f0f0bb5/emah-logo.svg"
       inkscape:export-xdpi="96"
       inkscape:export-ydpi="96"><tspan
         sodipodi:role="line"
         id="tspan9559"
         style="font-style:normal;font-variant:normal;font-weight:normal;font-stretch:normal;font-family:'TT Supermolot Neue';-inkscape-font-specification:'TT Supermolot Neue';stroke-width:1.00481"
         x="732.11755"
         y="285.55701">anti-marketing</tspan></text>
    <g
       id="g9571"
       transform="matrix(0.86414467,0,0,0.86414467,175.11256,-668.13762)">
      <g
         id="g9573"
         clip-path="url(#clipPath9577)">
        <g
           id="g9579"
           transform="translate(944.7344,524.708)">
          <path
             d="m 0,0 -4.166,-1.553 c -7.553,-2.512 -15.361,-3.768 -23.434,-3.768 -8.869,0 -13.302,5.291 -13.302,15.882 0,5.03 1.224,8.834 3.672,11.418 2.453,2.583 6.255,4.136 11.418,4.667 L 0,29.026 Z m 18.465,50.272 c 0,11.25 -2.651,19.49 -7.942,24.723 -5.291,5.226 -13.769,7.838 -25.412,7.838 -12.05,0 -25.084,-1.653 -39.117,-4.963 l 0.596,-13.501 c 14.558,1.588 27.4,2.381 38.521,2.381 4.891,0 8.602,-1.287 11.12,-3.869 C -1.258,60.296 0,56.092 0,50.272 V 42.527 L -28.193,39.95 c -10.991,-1.067 -18.996,-3.876 -24.026,-8.443 -5.031,-4.564 -7.542,-11.75 -7.542,-21.542 0,-9.93 2.447,-17.543 7.345,-22.836 4.893,-5.291 12.041,-7.939 21.441,-7.939 10.038,0 25.254,5.45 35.465,9.683 l 1.577,-7.499 12.382,0.014 z m 90.543,12.31 c -1.987,7.011 -5.363,12.143 -10.125,15.386 -4.772,3.246 -11.389,4.865 -19.86,4.865 -4.9,0 -9.662,-0.597 -14.294,-1.786 C 60.092,79.855 54.931,77.932 49.24,75.291 V 122.74 H 30.776 V -18.629 H 49.24 v 76.244 c 0,2.145 1.354,4.057 3.375,4.77 7.281,2.511 14.299,3.766 21.051,3.766 5.422,0 9.559,-0.985 12.403,-2.976 2.847,-1.982 4.8,-5.232 5.861,-9.726 1.058,-4.501 1.588,-11.054 1.588,-19.657 v -52.421 h 18.467 v 52.814 c 0,11.919 -0.995,21.377 -2.977,28.397 M -71.258,62.385 c -1.982,7.011 -5.291,12.173 -9.93,15.482 -4.632,3.31 -11.048,4.966 -19.257,4.966 -6.491,0 -12.877,-0.93 -19.162,-2.781 -6.289,-1.851 -12.08,-4.239 -17.37,-7.149 -2.517,3.309 -5.96,5.79 -10.331,7.447 -4.36,1.656 -9.131,2.483 -14.292,2.483 -4.767,0 -9.398,-0.727 -13.898,-2.186 -4.502,-1.458 -9.271,-3.637 -14.293,-6.547 v 6.547 h -18.27 v -99.276 h 18.465 v 78.626 l 3.18,1.59 c 2.644,1.189 5.924,2.249 9.829,3.178 3.898,0.922 7.708,1.386 11.409,1.386 5.032,0 8.84,-1.022 11.417,-3.075 2.585,-2.056 4.335,-5.43 5.265,-10.127 0.928,-4.696 1.392,-11.484 1.392,-20.353 v -51.225 h 18.661 v 51.624 c 0,12.31 -0.725,21.311 -2.182,27.002 l 3.568,1.59 c 3.051,1.32 6.557,2.416 10.528,3.28 3.967,0.857 7.808,1.284 11.517,1.284 5.032,0 8.836,-1.022 11.418,-3.075 2.578,-2.056 4.371,-5.358 5.357,-9.924 0.995,-4.567 1.497,-11.019 1.497,-19.36 v -52.421 h 18.457 v 52.814 c 0,11.782 -0.987,21.182 -2.975,28.2 M -282.295,36.924 h 47.6 v 15.901 c 0,9.242 -4.621,13.896 -13.864,13.961 h -19.873 c -9.244,0 -13.863,-4.653 -13.863,-13.961 z M -299.166,7.161 V 56.8 c 0,7.43 2.439,13.587 7.318,18.468 4.881,4.879 11.037,7.319 18.471,7.319 h 29.764 c 7.431,0 13.604,-2.44 18.517,-7.319 4.912,-4.881 7.369,-11.038 7.369,-18.468 V 21.123 h -64.568 v -9.987 c 0,-9.243 4.619,-13.864 13.863,-13.864 h 46.731 v -15.901 h -51.676 c -7.434,0 -13.59,2.441 -18.471,7.319 -4.879,4.881 -7.318,11.039 -7.318,18.471"
             style="fill:#413e3f;fill-opacity:1;fill-rule:nonzero;stroke:none"
             id="path9581" />
        </g>
      </g>
    </g>
    <g
       id="g9583"
       transform="translate(126.81164,-756.09689)">
      <g
         id="g9585">
        <g
           id="g9591">
          <g
             id="g9593">
            <path
               d="m 444.64605,645.86229 -43.84238,-21.61225 -34.60467,-38.31186 -10.667,-46.43049 27.36833,-47.09675 44.5311,2.01087 17.33733,-30.34272 27.76151,24.73528 41.30958,4.43825 20.11988,29.26685 39.31599,15.35671 6.42232,50.09793 -42.48394,43.73436 -53.55623,14.77428 z m -34.3895,-23.51424 35.80584,17.65102 33.14599,0.5254 -11.97272,-32.67331 c -2.47577,-0.0372 -4.68539,-1.17005 -6.16567,-2.93636 v 0 z m 62.50618,-16.52244 12.49899,34.10779 41.54548,-11.46115 -53.57351,-23.09254 c -0.1495,0.15468 -0.30677,0.30331 -0.47096,0.4459 m 58.66246,18.2274 -29.68683,-75.05442 c -0.0259,0.002 -0.0536,0.003 -0.0804,0.003 v 0 c -0.44936,0 -0.88748,-0.0372 -1.31436,-0.10629 v 0 l -26.58023,45.61129 c 1.13116,1.40682 1.81038,3.19388 1.81038,5.13734 v 0 c 0,0.11147 -0.004,0.22122 -0.009,0.3301 v 0 z m 5.95136,-0.9592 36.12039,-37.18414 -65.98177,-38.31445 z m -165.78442,-39.96583 31.8636,35.27698 24.82256,-71.94004 c -1.00414,-0.846 -1.80261,-1.92532 -2.30986,-3.15845 v 0 l -63.60709,-0.36035 z m 62.25212,-34.7438 -23.34487,67.65648 48.66085,-16.69268 c 0.0665,-1.86223 0.75008,-3.56633 1.85532,-4.91266 v 0 L 434.78962,548.2995 c -0.31023,0.0467 -0.62478,0.0743 -0.94537,0.0847 m 34.83453,43.15625 26.57764,-45.61042 c -0.53664,-0.66885 -0.97044,-1.42324 -1.28067,-2.239 v 0 l -52.85713,-0.29726 c -0.30937,0.72329 -0.71897,1.39473 -1.21153,1.99704 v 0 l 26.22765,46.13582 c 0.40096,-0.0605 0.8097,-0.0925 1.22709,-0.0925 v 0 c 0.44935,0 0.88747,0.038 1.31695,0.10629 m 41.14884,-51.54623 c 0.0259,0.26097 0.0415,0.528 0.0415,0.79674 v 0 c 0,0.44331 -0.0372,0.87884 -0.10542,1.304 v 0 l 62.79307,36.46172 -4.67502,-36.4695 -34.95293,-13.65176 z m -68.99763,-3.62854 c 0.19271,0.36467 0.35776,0.74662 0.49256,1.14067 v 0 l 52.68777,0.29813 c 0.31455,-0.80538 0.75094,-1.54941 1.29103,-2.20789 v 0 l -21.19401,-37.10378 z m -77.07047,0.70169 62.06806,0.3517 c 0.007,-0.0138 0.0104,-0.0285 0.0155,-0.0415 v 0 L 384.45751,501.4473 Z m 143.43419,-2.33838 20.84749,-10.43023 -17.5188,-25.48276 -31.37623,-3.37103 21.264,37.22995 c 0.40702,-0.0605 0.82526,-0.0933 1.24783,-0.0933 v 0 c 2.13271,0 4.07703,0.81402 5.53571,2.1474 m -77.49044,-1.79569 c 1.15104,-0.61441 2.46281,-0.96266 3.85754,-0.96266 v 0 c 1.00327,0 1.96074,0.18061 2.84908,0.50725 v 0 l 33.49425,-38.11828 -23.62744,-21.05402 -15.52091,27.16006 -40.55949,-1.83285 z"
               style="fill:url(#linearGradient9599);stroke:none;stroke-width:0.864145"
               id="path9601" />
          </g>
        </g>
      </g>
    </g>
  </g>
</svg>
