<?xml version="1.0" encoding="utf-8"?>
<!-- Generator: Adobe Illustrator 27.8.0, SVG Export Plug-In . SVG Version: 6.00 Build 0)  -->
<svg version="1.1"
	 id="emah" xmlns:sodipodi="http://sodipodi.sourceforge.net/DTD/sodipodi-0.dtd" xmlns:inkscape="http://www.inkscape.org/namespaces/inkscape" xmlns:svg="http://www.w3.org/2000/svg"
	 xmlns="http://www.w3.org/2000/svg" xmlns:xlink="http://www.w3.org/1999/xlink" x="0px" y="0px" viewBox="0 0 512 155"
	 style="enable-background:new 0 0 512 155;" xml:space="preserve">
<style type="text/css">
	.st0{fill:#413E3F;}
	.st1{fill:url(#logomark_00000086679233079465803260000004372092762386809747_);}
</style>
<g id="logotype">
	<path id="logoname" class="st0" d="M430.2,89.7l-3,1.1c-5.5,1.8-11.2,2.8-17.1,2.8c-6.5,0-9.7-3.9-9.7-11.6c0-3.7,0.9-6.5,2.7-8.3
		c1.8-1.9,4.6-3,8.3-3.4l18.8-1.7V89.7z M443.7,52.9c0-8.2-1.9-14.2-5.8-18.1c-3.9-3.8-10.1-5.7-18.6-5.7c-8.8,0-18.3,1.2-28.6,3.6
		l0.4,9.9c10.6-1.2,20-1.7,28.1-1.7c3.6,0,6.3,0.9,8.1,2.8c1.8,1.9,2.8,5,2.8,9.2v5.7l-20.6,1.9c-8,0.8-13.9,2.8-17.5,6.2
		c-3.7,3.3-5.5,8.6-5.5,15.7c0,7.3,1.8,12.8,5.4,16.7c3.6,3.9,8.8,5.8,15.7,5.8c7.3,0,18.4-4,25.9-7.1l1.2,5.5l9,0L443.7,52.9z
		 M509.8,44c-1.5-5.1-3.9-8.9-7.4-11.2c-3.5-2.4-8.3-3.6-14.5-3.6c-3.6,0-7.1,0.4-10.4,1.3c-3.4,0.9-7.2,2.3-11.3,4.2V0h-13.5v103.2
		h13.5V47.6c0-1.6,1-3,2.5-3.5c5.3-1.8,10.4-2.7,15.4-2.7c4,0,7,0.7,9.1,2.2c2.1,1.4,3.5,3.8,4.3,7.1c0.8,3.3,1.2,8.1,1.2,14.4v38.3
		H512V64.7C512,56,511.3,49.1,509.8,44 M378.2,44.1c-1.4-5.1-3.9-8.9-7.3-11.3c-3.4-2.4-8.1-3.6-14.1-3.6c-4.7,0-9.4,0.7-14,2
		c-4.6,1.4-8.8,3.1-12.7,5.2c-1.8-2.4-4.3-4.2-7.5-5.4c-3.2-1.2-6.7-1.8-10.4-1.8c-3.5,0-6.9,0.5-10.1,1.6
		c-3.3,1.1-6.8,2.7-10.4,4.8v-4.8h-13.3v72.5h13.5V45.8l2.3-1.2c1.9-0.9,4.3-1.6,7.2-2.3c2.8-0.7,5.6-1,8.3-1c3.7,0,6.5,0.7,8.3,2.2
		c1.9,1.5,3.2,4,3.8,7.4c0.7,3.4,1,8.4,1,14.9v37.4h13.6V65.6c0-9-0.5-15.6-1.6-19.7l2.6-1.2c2.2-1,4.8-1.8,7.7-2.4
		c2.9-0.6,5.7-0.9,8.4-0.9c3.7,0,6.5,0.7,8.3,2.2c1.9,1.5,3.2,3.9,3.9,7.2c0.7,3.3,1.1,8,1.1,14.1v38.3h13.5V64.7
		C380.4,56.1,379.6,49.2,378.2,44.1 M224.1,62.7h34.8V51.1c0-6.7-3.4-10.1-10.1-10.2h-14.5c-6.7,0-10.1,3.4-10.1,10.2V62.7z
		 M211.8,84.4V48.2c0-5.4,1.8-9.9,5.3-13.5c3.6-3.6,8.1-5.3,13.5-5.3h21.7c5.4,0,9.9,1.8,13.5,5.3c3.6,3.6,5.4,8.1,5.4,13.5v26.1
		h-47.1v7.3c0,6.7,3.4,10.1,10.1,10.1h34.1v11.6h-37.7c-5.4,0-9.9-1.8-13.5-5.3C213.6,94.3,211.8,89.8,211.8,84.4"/>
	
		<linearGradient id="logomark_00000101081388408663700400000015171959674204698806_" gradientUnits="userSpaceOnUse" x1="-41.9144" y1="497.4221" x2="-41.2946" y2="497.4221" gradientTransform="matrix(305.6216 0 0 -305.6216 12809.9482 152100.8594)">
		<stop  offset="0" style="stop-color:#EF2F21"/>
		<stop  offset="1" style="stop-color:#F49720"/>
	</linearGradient>
	<path id="logomark" style="fill:url(#logomark_00000101081388408663700400000015171959674204698806_);" d="M75.3,1.4l-37,18.3L9,52
		L0,91.2L23.1,131l37.6-1.7L75.4,155l23.5-20.9l34.9-3.7l17-24.7l33.2-13l5.4-42.3l-35.9-37L108.3,0.8L75.3,1.4z M46.2,21.2
		L76.5,6.3l28-0.4L94.4,33.5c-2.1,0-4,1-5.2,2.5l0,0L46.2,21.2z M99.1,35.2l10.6-28.8l35.1,9.7L99.5,35.6
		C99.3,35.4,99.2,35.3,99.1,35.2 M148.6,19.8l-25.1,63.4c0,0,0,0-0.1,0l0,0c-0.4,0-0.8,0-1.1,0.1l0,0L99.9,44.8
		c1-1.2,1.5-2.7,1.5-4.3l0,0c0-0.1,0-0.2,0-0.3l0,0L148.6,19.8z M153.7,20.6L184.2,52l-55.8,32.4L153.7,20.6z M13.6,54.4l26.9-29.8
		l21,60.8c-0.8,0.7-1.5,1.6-2,2.7l0,0L5.8,88.3L13.6,54.4z M66.2,83.7L46.4,26.6l41.1,14.1c0.1,1.6,0.6,3,1.6,4.2l0,0L67,83.8
		C66.7,83.8,66.4,83.7,66.2,83.7 M95.6,47.3l22.5,38.5c-0.5,0.6-0.8,1.2-1.1,1.9l0,0L72.3,88c-0.3-0.6-0.6-1.2-1-1.7l0,0l22.2-39
		c0.3,0.1,0.7,0.1,1,0.1l0,0C94.9,47.4,95.2,47.3,95.6,47.3 M130.4,90.8c0-0.2,0-0.4,0-0.7l0,0c0-0.4,0-0.7-0.1-1.1l0,0l53.1-30.8
		l-4,30.8l-29.5,11.5L130.4,90.8z M72.1,93.9c0.2-0.3,0.3-0.6,0.4-1l0,0l44.5-0.3c0.3,0.7,0.6,1.3,1.1,1.9l0,0l-17.9,31.4L72.1,93.9
		z M7,93.3L59.4,93c0,0,0,0,0,0l0,0l-35,30.4L7,93.3z M128.2,95.3l17.6,8.8L131,125.6l-26.5,2.8l18-31.5c0.3,0.1,0.7,0.1,1.1,0.1
		l0,0C125.3,97.1,126.9,96.4,128.2,95.3 M62.7,96.8c1,0.5,2.1,0.8,3.3,0.8l0,0c0.8,0,1.7-0.2,2.4-0.4l0,0l28.3,32.2l-20,17.8
		l-13.1-22.9l-34.3,1.5L62.7,96.8z"/>
</g>
</svg>
