<?xml version="1.0" encoding="utf-8"?>
<!-- Generator: Adobe Illustrator 27.8.0, SVG Export Plug-In . SVG Version: 6.00 Build 0)  -->
<svg version="1.1" id="Capa_1" xmlns="http://www.w3.org/2000/svg" xmlns:xlink="http://www.w3.org/1999/xlink" x="0px" y="0px"
	 viewBox="0 0 512 416.8" style="enable-background:new 0 0 512 416.8;" xml:space="preserve">
<style type="text/css">
	.st0{fill:#EA581D;}
</style>
<g id="Capa_1-2_00000040563086956977740840000005433561137530314648_">
	<path class="st0" d="M415.1,33.8L292.8,0l-89.1,1.7L103.5,50.9l-79.2,87.5L0,244.7L62.5,352l101.8-4.4l39.9,69.2l63.7-56.5l94.1-10
		l45.9-67l89.7-34.9L512,134L415.1,33.8L415.1,33.8z M194.8,251.3c0.6-0.6,0.6-1.7,1.1-2.8l120.1-0.6c0.6,1.7,1.7,3.3,2.8,5
		l-48.2,84.7L194.8,251.3L194.8,251.3z M65.9,331.6l-47-81.4l141.7-1.1l0,0L65.9,331.6z M236.9,107.9c0,4.4,1.7,8.3,4.4,11.1
		l-59.8,105.2c-0.6,0-1.7,0-2.2,0L125.6,69.7L236.9,107.9z M296.1,14.9l94.7,26L268.5,93.5c-0.6-0.6-0.6-0.6-1.1-1.1L296.1,14.9
		L296.1,14.9z M195.4,235.2c-0.6-1.7-1.7-3.3-2.8-4.4l59.8-105.2c1.1,0,1.7,0,2.8,0c1.1,0,2.2,0,2.8,0l60.9,104.1
		c-1.1,1.7-2.2,3.3-2.8,5L195.4,235.2L195.4,235.2z M333.8,222.5c-1.1,0-2.2,0-2.8,0l-60.9-104.1c2.8-3.3,3.9-7.2,3.9-11.6v-0.6
		l127.3-54.8L333.8,222.5L333.8,222.5L333.8,222.5z M415.1,53.7l82.5,84.7l-150.6,87.5L415.1,53.7z M207,14.9l75.3-1.1l-27.1,74.7
		c-5.5,0-10.5,2.8-13.8,6.6L125.1,55.4C125.1,55.4,207,14.9,207,14.9z M36.5,144.5l73.1-80.3l56.5,164.4c-2.2,2.2-3.9,4.4-5.5,7.2
		l-145,0.6L36.5,144.5L36.5,144.5z M171.6,333.8l-92.4,4.4l90.2-78.6c2.8,1.7,5.5,2.2,8.9,2.2c2.2,0,4.4-0.6,6.6-1.1l76.4,86.9
		L207,395.8L171.6,333.8L171.6,333.8z M354.2,337.1l-72,7.7l48.7-85.2c1.1,0,1.7,0,2.8,0c5,0,9.4-1.7,12.7-5l47.6,23.8L354.2,337.1
		L354.2,337.1z M405.2,269.6L352.6,243c0-0.6,0-1.1,0-1.7c0-1.1,0-2.2,0-2.8l143.4-83l-10.5,83.6L405.2,269.6L405.2,269.6z"/>
</g>
</svg>
