<?xml version="1.0" encoding="utf-8"?>
<!-- Generator: Adobe Illustrator 27.8.0, SVG Export Plug-In . SVG Version: 6.00 Build 0)  -->
<svg version="1.1" id="Capa_1" xmlns="http://www.w3.org/2000/svg" xmlns:xlink="http://www.w3.org/1999/xlink" x="0px" y="0px"
	 viewBox="0 0 512 512" style="enable-background:new 0 0 512 512;" xml:space="preserve">
<style type="text/css">
	.st0{fill:#EA581D;}
</style>
<g id="Capa_1-2">
	<path class="st0" d="M415.1,81.4L292.8,47.6l-89.1,1.7L103.5,98.5L24.4,186L0,292.3l62.5,107.4l101.8-4.4l39.9,69.2l63.6-56.5
		l94.1-10l45.9-67l89.7-34.9L512,181.5L415.1,81.4L415.1,81.4L415.1,81.4z M194.8,298.9c0.6-0.6,0.6-1.7,1.1-2.8l120.1-0.6
		c0.5,1.7,1.7,3.3,2.8,5l-48.2,84.7L194.8,298.9L194.8,298.9L194.8,298.9z M65.9,379.2l-47-81.4l141.7-1.1l0,0L65.9,379.2
		L65.9,379.2z M236.9,155.5c0,4.4,1.7,8.3,4.4,11.1l-59.8,105.2h-2.2l-53.7-154.4L236.9,155.5L236.9,155.5z M296.1,62.6l94.6,26
		l-122.3,52.6c-0.4-0.4-0.7-0.7-1.1-1.1L296.1,62.6L296.1,62.6L296.1,62.6z M195.4,282.9c-0.6-1.7-1.7-3.3-2.8-4.4l59.8-105.2h5.5
		l60.9,104.1c-1.1,1.7-2.2,3.3-2.8,5L195.4,282.9L195.4,282.9L195.4,282.9z M333.8,270.1H331l-60.9-104.1c2.8-3.3,3.9-7.2,3.9-11.6
		v-0.6l127.3-54.8L333.8,270.1L333.8,270.1L333.8,270.1z M415.1,101.3l82.5,84.7l-150.6,87.5L415.1,101.3L415.1,101.3z M207,62.5
		l75.3-1.1l-27.1,74.7c-5.5,0-10.5,2.8-13.8,6.6l-116.2-39.8L207,62.5z M36.5,192.1l73.1-80.3L166,276.2c-2.2,2.2-3.9,4.4-5.5,7.2
		l-145,0.6L36.5,192.1L36.5,192.1L36.5,192.1z M171.6,381.4l-92.4,4.4l90.2-78.6c2.8,1.7,5.5,2.2,8.9,2.2c2.2,0,4.4-0.5,6.6-1.1
		l76.4,86.9L207,443.4L171.6,381.4L171.6,381.4z M354.2,384.7l-72,7.8l48.7-85.2h2.8c5,0,9.4-1.7,12.7-5l47.6,23.8L354.2,384.7
		L354.2,384.7z M405.2,317.2l-52.6-26.6v-4.4l143.4-83l-10.5,83.6L405.2,317.2L405.2,317.2L405.2,317.2z"/>
</g>
</svg>
